<svg width="2122" height="734" viewBox="0 0 2122 734" fill="none" xmlns="http://www.w3.org/2000/svg">
<path d="M0.5 722L90.5 211H219.5L211.5 257.5C228.167 238.5 248 224 271 214C294 204 318.333 199 344 199C368.667 199 391 205.833 411 219.5C431.333 233.167 446 251.167 455 273.5C476 248.5 499.833 229.833 526.5 217.5C553.5 205.167 583.833 199 617.5 199C652.833 199 682.833 207.833 707.5 225.5C732.5 242.833 750.167 266.833 760.5 297.5C771.167 327.833 773.167 362.5 766.5 401.5L709.5 722H575L627.5 421.5C632.833 390.833 630.5 367.167 620.5 350.5C610.5 333.5 593.833 325 570.5 325C547.5 325 527.167 333 509.5 349C491.833 365 480.167 388.833 474.5 420.5L421.5 722H286.5L339.5 421.5C344.833 391.5 342.333 368 332 351C322 333.667 305.5 325 282.5 325C259.167 325 238.167 333.167 219.5 349.5C201.167 365.833 189.333 389.5 184 420.5L131.5 722H0.5Z" fill="url(#paint0_linear_1102_72)"/>
<path d="M1018.32 734C975.654 734 938.154 725.833 905.82 709.5C873.82 693.167 848.82 668.833 830.82 636.5C812.82 604.167 803.82 564 803.82 516C803.82 476.667 809.987 438.167 822.32 400.5C834.654 362.833 852.82 328.833 876.82 298.5C900.82 268.167 930.154 244 964.82 226C999.487 208 1039.15 199 1083.82 199C1126.49 199 1162.49 208.167 1191.82 226.5C1221.49 244.5 1243.82 269 1258.82 300C1274.15 331 1281.82 366 1281.82 405C1281.82 423.333 1280.32 442 1277.32 461C1274.32 480 1269.49 498.833 1262.82 517.5H937.32C937.32 539.5 941.487 557.833 949.82 572.5C958.154 587.167 969.654 598.333 984.32 606C998.987 613.333 1015.65 617 1034.32 617C1054.99 617 1075.82 612 1096.82 602C1117.82 592 1135.32 579.167 1149.32 563.5L1217.32 649C1192.32 675.333 1163.82 696.167 1131.82 711.5C1100.15 726.5 1062.32 734 1018.32 734ZM957.32 405H1155.82C1154.82 387 1150.99 371.333 1144.32 358C1137.65 344.333 1127.99 333.833 1115.32 326.5C1102.99 318.833 1087.99 315 1070.32 315C1052.32 315 1035.65 318.333 1020.32 325C1005.32 331.333 992.32 341.333 981.32 355C970.32 368.333 962.32 385 957.32 405Z" fill="url(#paint1_linear_1102_72)"/>
<path d="M1516.17 734C1473.51 734 1436.01 725.833 1403.67 709.5C1371.67 693.167 1346.67 668.833 1328.67 636.5C1310.67 604.167 1301.67 564 1301.67 516C1301.67 476.667 1307.84 438.167 1320.17 400.5C1332.51 362.833 1350.67 328.833 1374.67 298.5C1398.67 268.167 1428.01 244 1462.67 226C1497.34 208 1537.01 199 1581.67 199C1624.34 199 1660.34 208.167 1689.67 226.5C1719.34 244.5 1741.67 269 1756.67 300C1772.01 331 1779.67 366 1779.67 405C1779.67 423.333 1778.17 442 1775.17 461C1772.17 480 1767.34 498.833 1760.67 517.5H1435.17C1435.17 539.5 1439.34 557.833 1447.67 572.5C1456.01 587.167 1467.51 598.333 1482.17 606C1496.84 613.333 1513.51 617 1532.17 617C1552.84 617 1573.67 612 1594.67 602C1615.67 592 1633.17 579.167 1647.17 563.5L1715.17 649C1690.17 675.333 1661.67 696.167 1629.67 711.5C1598.01 726.5 1560.17 734 1516.17 734ZM1455.17 405H1653.67C1652.67 387 1648.84 371.333 1642.17 358C1635.51 344.333 1625.84 333.833 1613.17 326.5C1600.84 318.833 1585.84 315 1568.17 315C1550.17 315 1533.51 318.333 1518.17 325C1503.17 331.333 1490.17 341.333 1479.17 355C1468.17 368.333 1460.17 385 1455.17 405Z" fill="url(#paint2_linear_1102_72)"/>
<path d="M1926.54 734C1883.54 734 1852.54 721 1833.54 695C1814.87 668.667 1809.87 630.667 1818.54 581L1863.04 327H1784.04L1804.54 211H1883.04L1913.04 43.5L2051.04 0L2014.04 211H2121.04L2101.04 327H1993.54L1950.54 571C1947.21 589 1947.87 601.5 1952.54 608.5C1957.54 615.5 1967.54 619 1982.54 619C1994.54 619 2006.04 617.667 2017.04 615C2028.04 612.333 2042.04 607.333 2059.04 600L2034.54 711.5C2004.87 726.5 1968.87 734 1926.54 734Z" fill="url(#paint3_linear_1102_72)"/>
<defs>
<linearGradient id="paint0_linear_1102_72" x1="0.500012" y1="722" x2="2317.5" y2="9.00016" gradientUnits="userSpaceOnUse">
<stop stop-color="#00FFFF"/>
<stop offset="1" stop-color="#FF00F5"/>
</linearGradient>
<linearGradient id="paint1_linear_1102_72" x1="0.500012" y1="722" x2="2317.5" y2="9.00016" gradientUnits="userSpaceOnUse">
<stop stop-color="#00FFFF"/>
<stop offset="1" stop-color="#FF00F5"/>
</linearGradient>
<linearGradient id="paint2_linear_1102_72" x1="0.500012" y1="722" x2="2317.5" y2="9.00016" gradientUnits="userSpaceOnUse">
<stop stop-color="#00FFFF"/>
<stop offset="1" stop-color="#FF00F5"/>
</linearGradient>
<linearGradient id="paint3_linear_1102_72" x1="0.500012" y1="722" x2="2317.5" y2="9.00016" gradientUnits="userSpaceOnUse">
<stop stop-color="#00FFFF"/>
<stop offset="1" stop-color="#FF00F5"/>
</linearGradient>
</defs>
</svg>
