<svg width="auto" height="50" viewBox="0 0 3159 808" fill="none" xmlns="http://www.w3.org/2000/svg">
<circle cx="2039" cy="89" r="34" fill="#FC6148"/>
<path d="M88 93.2391C88 93.4391 85.1 106.139 81.5 121.339C77.9 136.639 75 149.539 75 149.939C75 150.439 142.1 150.839 224.1 150.839C345.5 150.839 373.1 151.039 372.7 152.139C372.4 152.839 299.7 284.239 211.1 444.139L50 734.839V740.839V746.839H250H450L450.5 744.639C454.6 727.939 463 691.139 463 690.139C463 689.039 432.9 688.839 301.5 688.839C212.7 688.839 140 688.639 140 688.439C140 688.239 212.9 556.439 302 395.639C462.6 106.039 464.1 103.339 463.8 98.3391L463.5 93.3391L275.8 93.0391C172.5 92.9391 88 93.0391 88 93.2391Z" fill="#EEF2F2"/>
<path d="M2777 110.739L2748.5 117.339V431.839V746.339L2777.2 746.639L2805.9 746.839L2806.3 592.139C2806.6 452.439 2806.8 436.339 2808.3 426.939C2812.3 402.239 2819.1 383.139 2829.5 367.239C2846.3 341.439 2871.9 326.439 2906.7 321.739C2918 320.239 2948 321.139 2957.5 323.339C3001.5 333.239 3029.3 361.639 3040.6 408.339C3046.6 433.439 3046.3 425.239 3046.7 593.039L3047.1 746.839H3075.5H3104V593.539C3104 466.539 3103.7 438.039 3102.5 426.639C3098.5 389.039 3087.5 355.739 3070.9 330.939C3063.3 319.439 3048.4 303.839 3037 295.239C3032.3 291.639 3023.1 286.139 3016.5 282.839C2992.1 270.939 2968.6 265.839 2937.8 265.839C2882.9 265.839 2839.7 285.439 2812 322.939C2808.6 327.539 2805.7 331.439 2805.6 331.539C2805.6 331.639 2805.6 285.439 2805.8 229.039C2806 172.539 2806 121.339 2805.8 115.239L2805.5 104.139L2777 110.739Z" fill="#EEF2F2"/>
<path d="M2405.5 196.439C2390.7 199.939 2378.4 202.839 2378.3 202.839C2378.1 202.839 2378 219.039 2378 238.839V274.839H2349H2320V301.839V328.839H2349H2378V537.839V746.839H2406.5H2435V537.839V328.839H2466H2497V301.839V274.839H2466H2435V232.339C2435 198.939 2434.7 189.839 2433.8 189.939C2433.1 190.039 2420.4 192.939 2405.5 196.439Z" fill="#EEF2F2"/>
<path d="M1520 266.939C1432.7 277.039 1379.6 335.339 1370 431.739C1369.4 438.339 1369 497.339 1369 594.439V746.839H1397.5H1425.9L1426.3 593.039C1426.7 432.839 1426.6 435.339 1431 414.039C1440.6 368.039 1467.2 336.739 1506 325.839C1536.4 317.339 1576.4 319.639 1601.7 331.339C1639.3 348.739 1661.3 385.939 1665.9 440.339C1666.6 447.939 1667 506.639 1667 599.639V746.839L1695.8 746.639L1724.5 746.339L1724.8 605.839C1725.1 436.939 1724.8 427.039 1716.9 394.839C1698.6 320.139 1647.7 275.339 1571.5 266.839C1560.9 265.639 1530.7 265.739 1520 266.939Z" fill="#EEF2F2"/>
<path d="M858.5 269.539C843.5 271.539 819.9 277.739 805.4 283.339C734.7 311.039 682 374.139 664.6 451.839C659.3 475.839 658.5 483.439 658.6 512.839C658.6 536.339 658.9 542.339 660.8 553.839C665.3 581.139 672.4 603.739 684 627.339C718.6 697.839 783.3 742.539 865.5 752.939C880.3 754.839 914.8 754.539 930 752.439C974.5 746.339 1013.1 730.339 1047 703.939C1069.9 686.139 1096.8 655.539 1110.3 631.839L1112.8 627.339L1091.9 613.839C1080.3 606.439 1070.6 600.239 1070.2 600.039C1069.8 599.939 1067.5 603.239 1065.1 607.339C1049.2 634.339 1023.9 659.539 997.1 675.239C941 708.139 864.3 710.139 808 680.139C756.9 652.939 723.5 602.839 715.5 541.539C714.7 535.039 714 525.439 714 520.339V510.839L913.8 510.639L1113.5 510.339L1113.2 501.839C1110.8 431.239 1086.4 369.039 1044.9 327.739C1012.4 295.439 970.9 275.839 921.7 269.339C906.7 267.439 873.6 267.539 858.5 269.539ZM922.5 322.239C952.7 327.639 981.3 341.539 1002.2 360.839C1025.3 382.039 1042.4 412.639 1051 448.039C1052.7 454.739 1054 460.839 1054 461.539C1054 462.639 1021.5 462.839 885.9 462.839C726.3 462.839 717.9 462.739 718.4 461.039C718.6 460.139 720 455.039 721.4 449.839C724.7 437.739 728.5 427.739 734.9 414.939C761.2 362.739 807.1 329.639 865 321.339C877.6 319.439 910.2 320.039 922.5 322.239Z" fill="#EEF2F2"/>
<path d="M2039.5 280.939C2025.8 284.139 2013.5 287.039 2012.3 287.339L2010 287.839V517.339V746.839H2038.5H2067V510.839C2067 322.639 2066.7 274.839 2065.8 274.939C2065.1 275.039 2053.3 277.639 2039.5 280.939Z" fill="#EEF2F2"/>
</svg>
