<svg width="auto" height="50" viewBox="0 0 2258 645" fill="none" xmlns="http://www.w3.org/2000/svg">
<path d="M49.2839 86.4206C47.5317 91.5145 42.1156 109.343 42.1156 110.298C42.1156 111.094 95.1614 111.731 159.836 111.89L277.556 112.368L150.278 337.616C67.6031 483.907 23 564.455 23 567.161V571.618H167.641H312.123L316.265 558.088L320.566 544.557L192.492 544.238L64.4171 543.761L191.854 318.195C266.565 185.752 319.292 90.8778 319.292 88.49V84.5103H184.686C78.2759 84.5103 49.7618 84.9879 49.2839 86.4206Z" fill="#000202"/>
<path d="M1990.79 103.294L1980.76 105.682V338.73V571.618H1994.3H2007.68L2008.15 448.568C2008.63 327.268 2008.79 325.517 2012.3 312.942C2022.97 274.578 2044.32 251.655 2078.25 242.582C2092.1 238.761 2122.85 238.92 2136.71 242.741C2170.16 251.814 2191.98 275.215 2202.5 312.942C2206 325.517 2206.16 327.109 2206.64 448.568L2207.12 571.618H2220.66H2234.2L2233.56 447.135C2232.92 314.693 2233.08 317.558 2225.28 293.839C2211.26 251.337 2181.15 224.435 2138.62 215.838C2122.05 212.496 2087.17 213.292 2072.35 217.43C2048.46 224.116 2024.88 240.671 2012.77 259.615L2007.04 268.37L2007.52 184.479L2008 100.429L2004.33 100.588C2002.26 100.747 1996.21 101.862 1990.79 103.294Z" fill="#000202"/>
<path d="M1729.54 163.626L1719.51 165.854V192.916V219.818H1697.21H1674.91V232.553V245.288H1697.21H1719.51V408.453V571.618H1733.05H1746.59V408.453V245.288H1769.69H1792.79V232.553V219.818H1769.69H1746.59V190.369V160.919L1743.09 161.079C1741.01 161.079 1734.96 162.193 1729.54 163.626Z" fill="#000202"/>
<path d="M1090.29 214.406C1057.95 220.614 1033.42 234.463 1017.65 255.317C1002.83 275.056 993.595 299.411 990.09 327.268C988.975 336.501 988.338 382.506 988.338 456.527V571.618H1001.88H1015.26L1015.74 448.568C1016.37 327.268 1016.37 325.517 1019.88 312.942C1025.61 292.088 1033.58 277.921 1046.32 265.186C1065.12 246.561 1083.44 239.876 1114.98 239.876C1145.56 239.876 1164.2 246.561 1182.84 264.072C1195.26 275.692 1204.18 291.293 1209.92 311.35C1213.58 324.085 1213.58 324.085 1214.22 447.772L1214.7 571.618H1228.08H1241.62V453.343C1241.62 325.358 1241.3 318.832 1232.7 293.203C1222.66 262.957 1203.23 239.716 1177.58 227.141C1156.24 216.634 1147.79 214.724 1118.96 214.247C1105.42 213.928 1092.52 214.087 1090.29 214.406Z" fill="#000202"/>
<path d="M605.229 216.634C550.272 225.39 505.35 258.659 480.181 309.758C434.463 402.086 468.075 514.63 554.254 557.61C601.247 581.17 662.576 582.284 710.365 560.635C734.897 549.492 763.411 526.41 779.181 504.76C786.35 495.05 796.385 477.858 795.429 477.062C793.996 475.789 774.88 466.556 773.606 466.556C772.809 466.556 768.03 473.082 762.774 481.042C750.826 499.666 730.596 518.769 712.595 529.116C673.249 551.402 624.504 555.381 581.813 539.781C526.218 519.565 488.146 463.85 488.146 402.882V388.555H642.664H797.341L796.385 380.118C790.969 334.909 779.181 302.276 757.835 274.26C737.286 247.357 709.409 229.369 674.683 220.296C657.479 215.838 622.274 214.087 605.229 216.634ZM661.62 245.288C711.162 255.476 748.437 293.044 762.774 346.689L766.756 361.493H628.964C553.299 361.493 491.332 361.016 491.332 360.538C491.332 360.061 492.447 355.444 493.722 350.51C502.483 316.921 525.422 284.129 553.776 264.868C583.246 244.969 624.026 237.488 661.62 245.288Z" fill="#000202"/>
<path d="M1471.8 222.843L1460.65 225.708L1460.17 398.584L1459.86 571.618H1473.4H1486.94V395.718C1486.94 255.953 1486.46 219.818 1485.02 219.977C1483.91 220.137 1478.02 221.41 1471.8 222.843Z" fill="#000202"/>
<ellipse cx="1473.32" cy="85.5309" rx="18.5438" ry="18.5309" fill="#FC6148"/>
</svg>
